<svg width="800" height="800" viewBox="0 0 800 800" fill="none" xmlns="http://www.w3.org/2000/svg">
<g clip-path="url(#clip0_2_9)">
<rect width="800" height="800" fill="black"/>
<path d="M680.998 294H650.898C649.498 271.133 645.998 252.233 640.398 237.3C635.265 221.9 627.798 209.767 617.998 200.9C608.198 191.567 596.298 185.267 582.298 182C568.298 178.267 551.965 176.4 533.298 176.4C515.098 176.4 500.398 176.867 489.198 177.8C478.465 178.267 470.065 179.433 463.998 181.3C458.398 182.7 454.665 184.8 452.798 187.6C450.931 190.4 449.998 193.9 449.998 198.1V564.9C449.998 579.833 450.931 592.667 452.798 603.4C455.131 614.133 459.565 623 466.098 630C472.631 636.533 482.198 641.667 494.798 645.4C507.398 648.667 523.965 650.533 544.498 651V679H251.198V651C272.198 650.533 288.998 648.667 301.598 645.4C314.198 641.667 323.765 636.533 330.298 630C337.298 623 341.731 614.133 343.598 603.4C345.931 592.667 347.098 579.833 347.098 564.9V198.1C347.098 193.9 346.165 190.4 344.298 187.6C342.898 184.8 339.631 182.7 334.498 181.3C329.365 179.433 321.898 178.267 312.098 177.8C302.765 176.867 290.398 176.4 274.998 176.4C258.198 176.4 242.098 177.333 226.698 179.2C211.298 180.6 197.765 185.267 186.098 193.2C174.431 200.667 164.865 212.333 157.398 228.2C150.398 243.6 146.665 265.533 146.198 294H118.898L125.898 140H673.998L680.998 294Z" fill="white"/>
</g>
<defs>
<clipPath id="clip0_2_9">
<rect width="800" height="800" fill="white"/>
</clipPath>
</defs>
</svg>
